<svg width="200" height="281.05" version="1.1" viewBox="0 0 200 281.05" xml:space="preserve" xmlns="http://www.w3.org/2000/svg"><path d="m91.512 98.741c13.49-26.731 41.414-58.905 79.448-31.066" fill="none" stroke="#000" stroke-width="3.0174"/><path d="m87.569 101.59c13.329-40.584 18.712-90.252-18.525-96.049" fill="none" stroke="#000" stroke-width="3.0174"/><g stroke-width="8.0618"><path d="m148.79 139.83v-17.854h1.998c-2.9163-1.3678-6.1572-2.1552-9.5847-2.1552h-115.87c-12.503 0-22.679 10.176-22.679 22.679v115.86c0 12.51 10.176 22.685 22.679 22.685h115.87c12.502 0 22.679-10.176 22.679-22.685v-115.86c0-0.90558-0.0685-1.7929-0.1714-2.6702z" opacity=".5"/><path d="m138.55 277.47h-115.87c-12.504 0-22.68-10.176-22.68-22.684v-115.86c0-12.504 10.176-22.68 22.68-22.68h115.87c12.502 0 22.678 10.176 22.678 22.68v115.86c0 12.508-10.176 22.684-22.678 22.684" fill="#fff"/><path d="m154.43 254.79c0 8.7697-7.1086 15.878-15.877 15.878h-115.87c-8.7689 0-15.877-7.1077-15.877-15.878v-115.87c0-8.7697 7.1085-15.878 15.877-15.878h115.87c8.7689 0 15.877 7.1078 15.877 15.878z" fill="#90449e"/><path d="m169.37 140.74c-11.126-8.0419-22.217-14.144-26.364-16.341 3.3405 7.7328 4.5748 13.802 4.6122 13.85-0.0234-4e-3 -3.3692-7.4064-8.2497-16.451-4.8732-9.0623-12.645-19.263-24.089-24.155-3.8834-1.6628-7.4413-2.3333-10.697-2.3333-11.896-0.04192-20.302 9.1937-23.732 13.907-1.1436 1.5563-1.7013 2.5392-1.7013 2.5444l-0.23799 0.41833-0.43639 0.19663c-3.6781 1.6264-7.9562 6.0902-11.324 9.1744-9.8492 8.9358-15.852 20.167-15.852 32.364 0 4.4753 0.80643 9.0954 2.5496 13.819 3.1763 8.5826 8.606 15.372 15.847 20.95 8.2739 6.7045 7.8104 24.847 7.9466 24.989v19.172c0.19147 0.2001 0.35827 0.38995 0.57416 0.60674 0.62197 0.61842 1.345 1.2823 2.1812 1.951 3.1353 2.5121 7.6497 4.9772 13.289 4.9772 3.584-4e-3 7.6585-0.99427 12.219-3.6721l0.26604 0.0331c2.0127-13.807 6.6364-21.162 13.996-24.794 7.4009-3.6374 16.93-3.6041 28.901-4.0955 11.889-0.46163 23.464-2.3568 32.178-7.0782 8.706-4.7486 14.619-12.074 15.749-24.089 0.0355-0.42921 0.046-0.86238 0.046-1.2937 0.16567-11.188-13.583-24.569-27.678-34.648" fill="#f6bd6d"/><path d="m52.073 270.76 18.075-32.913s-31.401-13.775-47.279 32.535v0.38012z"/><path d="m120.45 111.86c0.46799 1.1528 0.80747 2.3952 1.0794 3.6731-0.14592-1.119-0.3594-2.2067-0.66172-3.2426-0.14237-0.13915-0.27434-0.2941-0.41784-0.43083"/><path d="m132.46 134.63c-0.76555-7.8795-5.3803-16.15-11.369-22.102 5.4598 6.4234 9.3332 15.146 9.3332 23.08 0 14.825-8.0523 21.275-20.319 21.17-7.7232-0.058-12.76-1.5145-16.046-3.9934 3.3832 4.0913 9.226 6.2577 19.885 5.3124 12.449-1.1062 19.976-8.4351 18.516-23.468"/><path d="m100.61 104.67c-0.0355 8e-3 -0.0685 0.025-0.093 0.0331-0.27192 0.26838-0.52982 0.56005-0.78538 0.85415 0.29055-0.30337 0.57295-0.61496 0.88454-0.88559"/><path d="m120.84 112.22c6e-3 0.025 8e-3 0.0419 0.0121 0.0669 0.0814 0.0742 0.15414 0.16076 0.23097 0.23743-0.0813-0.10497-0.16099-0.21002-0.2475-0.30918" fill="#fff"/><path d="m121.09 112.53c-0.0814-0.0862-0.15286-0.16083-0.23106-0.2375 0.3024 1.0375 0.51588 2.1246 0.66277 3.2428 0.11786 0.90792 0.203 1.8312 0.203 2.7817 0 9.4485-5.9233 17.106-13.231 17.106-7.3077 0-13.232-7.6586-13.232-17.106 0-5.0844 1.7326-9.6258 4.4568-12.759 0.25564-0.2941 0.51354-0.58585 0.78538-0.85335 0.51935-0.5108 1.0608-0.98483 1.6358-1.3923-10.325 1.5966-14.246 12.898-14.246 26.63 0 9.7113-0.08134 18.138 6.1633 22.846 3.2855 2.4791 8.3231 3.9297 16.047 3.9943 12.267 0.10497 20.319-6.3467 20.319-21.171 0-7.9336-3.8738-16.657-9.3332-23.08" fill="#fff"/><path d="m95.26 118.32c0 9.4477 5.9242 17.106 13.232 17.106 7.3076 0 13.231-7.6586 13.231-17.106 0-2.1507-0.32086-4.2003-0.88221-6.0961-4.696-5.4152-10.526-9.1204-16.125-9.1204-0.90559 0-1.7545 0.0862-2.5776 0.21251-4.0981 2.9066-6.8782 8.5343-6.8782 15.005"/><path d="m110.67 114.06c0 3.6556-2.4562 6.619-5.4842 6.619-3.0305 0-5.4842-2.9635-5.4842-6.619 0-3.6548 2.4537-6.6191 5.4842-6.6191 3.028 0 5.4842 2.9643 5.4842 6.6191" fill="#fff"/><path d="m73.727 231.7 0.0026-3e-3c-0.0018-2e-3 -0.0026-2e-3 -0.0026-2e-3z" fill="#231e1f"/><path d="m108.64 237.66c0.093-0.058 0.19252-0.11754 0.29047-0.18171l-1.2561-1.8784c-0.59859 0.39922-1.1852 0.76007-1.7676 1.1029l1.8296 0.21501s0.33376 0.26822 0.90325 0.74169" fill="#231e1f"/><path d="m75.606 233.14 2.6151 0.30998-0.57521-0.0669z" fill="#f6bd6d"/><path d="m141.04 120.15c1.4019 0.71412 7.2431 3.728 14.549 8.0836-1.4307-8.9656-11.807-20.213-17.971-25.711-2.1561-1.9361-3.872-2.4642-5.2154-2.4685-1.3417-4e-3 -2.4275 0.55594-3.2026 1.1448-0.56949 0.43252-0.91954 0.84037-1.0677 1.0268l-0.11899 0.25838c5.8081 5.2599 10.022 11.701 13.026 17.665" fill="#f6bd6d"/><path d="m130.61 209.51s-13.231-10.963-30.242-5.6703c0 0 22.685-0.75669 25.33 7.559z"/><path d="m68.995 4.8004c0 1.9831-1.6079 3.5919-3.5919 3.5919-1.9822 0-3.591-1.6088-3.591-3.5919 0-1.9823 1.6087-3.5911 3.591-3.5911 1.9839 0 3.5919 1.6088 3.5919 3.5911" fill="#9c61a4"/></g><path d="m68.995 4.8004c0 1.9831-1.6079 3.5919-3.5919 3.5919-1.9822 0-3.591-1.6088-3.591-3.5919 0-1.9823 1.6087-3.5911 3.591-3.5911 1.9839 0 3.5919 1.6088 3.5919 3.5911z" fill="#5a222f" stroke="#000" stroke-width="2.4186"/><path d="m175.6 69.069c0 1.9831-1.6078 3.5919-3.5901 3.5919-1.9831 0-3.5909-1.6087-3.5909-3.5919 0-1.9822 1.6078-3.5911 3.5909-3.5911 1.9822 0 3.5901 1.6089 3.5901 3.5911" fill="#5f122b" stroke-width="8.0618"/><path d="m175.6 69.069c0 1.9831-1.6078 3.5919-3.5901 3.5919-1.9831 0-3.5909-1.6087-3.5909-3.5919 0-1.9822 1.6078-3.5911 3.5909-3.5911 1.9822 0 3.5901 1.6089 3.5901 3.5911z" fill="#5a222f" stroke="#000" stroke-width="2.4186"/><g stroke-width="8.0618"><path d="m113.6 239.79c0-1.8584-1.3642-3.3668-3.048-3.3668-1.1238 0-2.0932 0.6776-2.6229 1.6768-5.1822 3.2455-9.9749 4.545-14.215 4.545h-0.02338c-9.1607-0.04192-15.449-5.6901-18.274-8.8576l0.11786-1.1203-1.8434 0.70742-2.4091 1.2761-0.78063 0.4975-0.4247 2.1255 0.62439 1.263-0.06933 0.0862c1.0678 1.1506 2.8743 2.931 5.3602 4.7346 4.16 3.0192 10.083 6.0027 17.198 5.9984 5.2643-5e-3 11.225-1.1767 17.758-5.7349 1.4882-0.22412 2.6578-2.1228 2.6578-3.8283" fill="#fff"/><path d="m197 176.68c-1.1296 12.015-7.044 19.34-15.749 24.09-8.7141 4.7205-20.291 6.6146-32.179 7.0772-11.969 0.4925-21.499 0.45831-28.899 4.0955-7.361 3.633-11.984 10.987-13.997 24.794l-0.26483-0.0331c-4.5608 2.6771-8.6351 3.6677-12.219 3.6722-5.6404 0-10.155-2.4659-13.29-4.978-0.83666-0.66833-1.5581-1.3328-2.1804-1.9508l-2.6151-0.30837 2.0398 0.24001 0.57529 0.0669c-0.21711-0.21662-0.38278-0.40664-0.57529-0.60666v-19.171c-0.13657-0.14157 0.32788-18.284-7.9465-24.989-7.2395-5.5777-12.67-12.367-15.847-20.95-1.7431-4.7232-2.5487-9.3437-2.5487-13.818 0-12.198 6.0026-23.429 15.852-32.364 3.3684-3.083 7.6463-7.5478 11.324-9.1744l0.43647-0.19591 0.23799-0.41833c0-4e-3 0.5578-0.98838 1.7003-2.5444 3.4303-4.7136 11.837-13.953 23.732-13.908 3.2566 0 6.8144 0.67002 10.696 2.3341 11.443 4.8915 19.216 15.092 24.09 24.154 4.8794 9.0446 8.2223 16.448 8.2489 16.452-0.0355-0.0419-1.271-6.1181-4.6114-13.85 4.1461 2.1961 15.238 8.2989 26.364 16.341 14.094 10.078 27.843 23.459 27.678 34.649 0 0.43082-0.0121 0.86358-0.046 1.2928m-84.658 64.958c-0.14004 0.37246-0.34311 0.70993-0.58932 0.97904-1.2909 1.3984-3.2688 2.2058-4.9509 3.0192-2.9058 1.4019-5.7434 2.7487-8.9503 3.29-1.531 0.25758-3.1179 0.4251-4.6734 0.42841-7.1147 4e-3 -13.038-2.9792-17.198-5.9984-2.3854-1.7309-4.126-3.425-5.2083-4.5764-0.01209-0.058-0.02338-0.10497-0.03547-0.15761-0.91962-3.5526 3.3508-4.738 4.5292-4.9955 2.7522 3.1354 9.1059 8.9761 18.441 9.0204 4.1373 0 8.3158-1.1986 11.914-3.2097 1.1412-0.63503 2.3926-1.3224 3.3998-2.1594 0.19953-0.16672 1.2875 0.43172 1.4646 0.52918 0.57296 0.31248 1.1098 0.72081 1.5388 1.2167 0.62084 0.71081 0.6406 1.7521 0.31635 2.6161m15.777-139.42c0.14825-0.18663 0.49822-0.59327 1.0678-1.0268 0.77603-0.58908 1.8609-1.1495 3.2034-1.1449 1.3426 4e-3 3.0595 0.53248 5.2146 2.4685 6.1641 5.4984 16.54 16.745 17.971 25.711-7.305-4.3557-13.146-7.368-14.549-8.0836-3.0052-5.9644-7.2186-12.406-13.026-17.665zm42.98 36.127c-4.3731-3.1572-8.918-6.1015-13.125-8.6721-0.60327-10.723-12.23-22.767-18.85-28.842-2.437-2.211-4.7422-3.063-6.7341-3.0533-3.7969 0.04192-5.8699 2.7993-6.1554 3.171-2.8928-2.3645-6.138-4.436-9.7935-6.022-4.2168-1.8086-8.1908-2.5723-11.86-2.5723-16.419 0.11674-26.062 14.827-27.734 17.525-4.3808 2.1604-8.5004 6.6223-11.68 9.484-10.303 9.3388-16.818 21.344-16.818 34.547 0 4.8312 0.8764 9.8064 2.7312 14.839 3.3797 9.1502 9.2171 16.427 16.813 22.266 3.1204 2.3237 5.0364 8.0078 5.8997 13.125 0.89503 5.1036 0.89035 9.5154 0.89857 9.5275v17.756c-8.2005 0.90615-6.0984 8.2586-6.0984 8.2586l0.14003 0.2217c-0.0053 2e-3 -0.01129 3e-3 -0.01209 5e-3 2.8717 3.1554 11.753 11.668 24.458 11.711h0.02338c6.1449 0 13.121-2.1499 20.52-7.7302 0.49701-0.27168 0.95452-0.6917 0.95452-0.6917l0.0121-0.025c0.0459-0.0331 0.093-0.058 0.13777-0.10496-0.0121-8e-3 -0.0355-0.0331-0.046-0.0419l0.0234-0.0419s1.9298-6.7936-5.3803-7.9344c2.1288-11.959 6.1292-17.495 12.05-20.459 6.3973-3.2166 15.674-3.3423 27.706-3.7928 12.116-0.48669 24.078-2.3671 33.463-7.4334 9.3945-5.0304 16.144-13.491 17.282-26.418 0.046-0.52499 0.0685-1.0409 0.0685-1.5563-0.15761-13.457-14.699-26.682-28.895-37.039"/><path d="m136.34 270.76c-2.8421-9.3654-13.984-20.79-21.499-27.684-7.8148 6.2272-15.178 8.5528-21.631 8.5528h-0.02338c-12.705-0.0419-21.586-8.5568-24.457-11.711-15.841 7.1995-23.793 26.041-25.602 30.843z" fill="#c7584d"/><path d="m44.374 270.66c0.84367-2.1744 2.6317-6.3685 5.4878-11.071 4.0396-6.6618 10.189-14.226 18.603-18.305 3.4496 3.6129 12.237 11.404 24.717 11.47h0.02338c6.5124 4e-3 13.874-2.2834 21.573-8.1997 7.3304 6.7603 17.58 17.579 20.361 26.107h2.3453c-2.9189-9.9209-14.267-21.393-21.881-28.431l-0.71404-0.65495-0.76185 0.60497c-7.6525 6.0944-14.743 8.3029-20.921 8.3069h-0.02338c-12.165-0.025-20.843-8.2739-23.617-11.34l-0.56006-0.61166-0.75032 0.33836c-16.732 7.6747-24.688 27.427-26.3 31.786z"/></g></svg>
