<?xml version="1.0" encoding="UTF-8"?>
<svg version="1.1" viewBox="0 0 48 48" xmlns="http://www.w3.org/2000/svg" xmlns:xlink="http://www.w3.org/1999/xlink">
<title>Kate text editor logo</title>
 <linearGradient id="a">
  <stop stop-color="#2a7fff" offset="0"/>
  <stop stop-color="#0cf" offset="1"/>
 </linearGradient>
 <linearGradient id="b" x1="80.7233" x2="141.4052" y1="192.1563" y2="252.8381" gradientUnits="userSpaceOnUse">
  <stop stop-color="#0055d4" offset="0"/>
  <stop stop-color="#06f" stop-opacity="0" offset="1"/>
 </linearGradient>
 <linearGradient id="c" x1="61.16326" x2="64.92766" y1="105.1096" y2="109.0449" gradientUnits="userSpaceOnUse">
  <stop stop-color="#e6e6e6" offset="0"/>
  <stop stop-color="#b3b3b3" offset="1"/>
 </linearGradient>
 <linearGradient id="d" x1="77.16696" x2="64.3717" y1="115.7148" y2="112.0044" gradientUnits="userSpaceOnUse">
  <stop stop-color="#0cf" offset="0"/>
  <stop stop-color="#2a7fff" offset="1"/>
 </linearGradient>
 <linearGradient id="e" x1="68.7071" x2="75.81916" y1="113.0645" y2="117.9126" gradientUnits="userSpaceOnUse" xlink:href="#a"/>
 <linearGradient id="f">
  <stop stop-color="#fff" offset="0"/>
  <stop stop-color="#b3b3b3" offset="1"/>
 </linearGradient>
 <linearGradient id="g" x1="77.40138" x2="68.67008" y1="106.368" y2="120.358" gradientUnits="userSpaceOnUse" xlink:href="#f"/>
 <linearGradient id="h" x1="68.22866" x2="68.16433" y1="112.7317" y2="118.5546" gradientUnits="userSpaceOnUse">
  <stop stop-color="#b3b3b3" offset="0"/>
  <stop stop-color="#fff" offset="1"/>
 </linearGradient>
 <linearGradient id="i" x1="63.36673" x2="71.13564" y1="106.8649" y2="104.8897" gradientUnits="userSpaceOnUse" xlink:href="#f"/>
 <linearGradient id="j" x1="66.95147" x2="66.33576" y1="104.461" y2="109.6676" gradientUnits="userSpaceOnUse">
  <stop stop-color="#ccc" offset="0"/>
  <stop stop-color="#b3b3b3" offset="1"/>
 </linearGradient>
 <linearGradient id="k" x1="62.96066" x2="77.48846" y1="115.8834" y2="107.3138" gradientUnits="userSpaceOnUse">
  <stop stop-color="#e6e6e6" offset="0"/>
  <stop stop-color="#fff" offset="1"/>
 </linearGradient>
 <linearGradient id="l" x1="220.3062" x2="54.43918" y1="207.9187" y2="42.05167" gradientTransform="matrix(.4464822 0 0 .4347945 59.66495 148.2602)" gradientUnits="userSpaceOnUse" xlink:href="#a"/>
 <linearGradient id="m" x1="68.21047" x2="148.5205" y1="177.7513" y2="258.0613" gradientUnits="userSpaceOnUse">
  <stop stop-color="#59f" offset="0"/>
  <stop stop-color="#06f" offset="1"/>
 </linearGradient>
 <g transform="matrix(.3583446 0 0 .3583446 -14.5889 -53.83445)">
  <circle cx="107.6866" cy="217.2056" r="55.81219" fill="url(#m)" stroke-width=".046091"/>
  <ellipse cx="107.6866" cy="215.7446" rx="55.81219" ry="54.35118" fill="url(#l)" stroke-width=".045484"/>
  <path d="m104.4276 173.4388c-3.17498 21.38886-11.1964 24.89739-26.92757 45.50887l4.506763 10.66624 38.2124 38.21262a55.81218 55.81218 0 0 0 43.27959-50.62107l-42.76116-42.76116z" fill="url(#b)" stroke-width=".046091"/>
  <g transform="matrix(4.547575 0 0 4.648984 -203.9438 -313.7877)" stroke-width=".264583">
   <path d="m65.428762 109.91943c-.79474-2.58086-5.285936-1.9546-6.036655-2.01063.842596-.40914 1.604061-.74639 3.341118-1.97728 3.346321-2.37122 6.889189-1.85409 8.663362-.91242-4.85033.18036-3.926305 2.76518-3.211896 4.12714-.908518.25814-2.342683.64782-2.755929.77319z" fill="url(#c)"/>
   <path d="m77.401381 106.36805c-1.746608 2.25673-4.650524 5.30573-7.828693 5.70736-3.17817.40163-6.208039-.0433-6.909882 2.27202-.64633 2.1322 1.626883 4.12293 3.984589 3.64314 2.518769-.51257 1.974803-3.30514.597137-5.20681 1.046467-.0587.851808-.0435 2.626388-.131 2.645109 2.20549 3.521857 2.8343 8.143023 6.05209-3.561162-.36484-4.857257-.69982-7.41144-2.19429.661668 1.62462 2.075907 5.31186 2.382248 8.17285-1.47315-2.07065-2.031632-2.83161-4.314667-4.32544-2.924418-1.9135-5.29286-1.97828-6.663677-4.79745-1.367857-2.81308.442686-4.83945 3.682518-5.71701 4.629957-1.2541 8.619281-2.4431 11.712456-3.47546z" fill="url(#d)"/>
   <path d="m67.244532 112.78376c1.046467-.0587.851808-.0435 2.626388-.131 2.645109 2.20549 3.521857 2.8343 8.143023 6.05209-4.644893-.32503-8.159344-1.66506-10.769411-5.92109z" fill="url(#e)"/>
   <path d="m77.401381 106.36805c-1.746608 2.25673-4.650524 5.30573-7.828693 5.70736-3.17817.40163-6.208039-.0433-6.909882 2.27202-.64633 2.1322 1.626883 4.12293 3.984589 3.64314 2.518769-.51257 1.974803-3.30514.597137-5.20681 1.046467-.0587.851808-.0435 2.626388-.131 2.645109 2.20549 3.521857 2.8343 8.143023 6.05209-3.561162-.36484-4.857257-.69982-7.41144-2.19429.661668 1.62462 2.075907 5.31186 2.382248 8.17285-1.47315-2.07065-2.031632-2.83161-4.314667-4.32544-2.924418-1.9135-5.29286-1.97828-6.663677-4.79745-1.367857-2.81308.442686-4.83945 3.682518-5.71701 4.629957-1.2541 8.619281-2.4431 11.712456-3.47546z" fill="url(#g)"/>
   <path d="m67.244532 112.78376c1.046467-.0587.851808-.0435 2.626388-.131 2.645109 2.20549 3.521857 2.8343 8.143023 6.05209-4.644893-.32503-8.159344-1.66506-10.769411-5.92109z" fill="url(#h)"/>
   <path d="m59.392107 107.9088c.842596-.40914 1.604061-.74639 3.341118-1.97728 3.346321-2.37122 6.889189-1.85409 8.663362-.91242-4.85033.18036-4.225378 1.1257-4.243278 1.86679-3.222572-.66446-4.163494.2396-7.761202 1.02291z" fill="url(#i)"/>
   <path d="m71.396587 105.0191c-4.85033.18036-3.926305 2.76518-3.211896 4.12714-.566006.16082-1.179475.34403-1.936109.53991-3.052938-5.32116 2.656266-6.01341 5.148005-4.66705z" fill="url(#j)"/>
   <path d="m62.8798 116.8861c-2.373486-2.98949-1.93525-5.72962 2.712379-7.1533 4.586439-1.40494 8.716028-2.33243 11.8092-3.36479-8.347338 3.11114-18.79984 5.18999-14.52158 10.51809z" fill="url(#k)"/>
  </g>
 </g>
</svg>