<svg width="127" height="42" viewBox="0 0 127 42" fill="none" xmlns="http://www.w3.org/2000/svg">
<g clip-path="url(#clip0_94_2157)">
<path d="M57.0251 26.1776L54.8677 30.2604H41.436L50.1817 13.4882H42.4568L44.6142 9.38215H58.0227L49.3002 26.1776H57.0251Z" fill="black"/>
<path d="M64.8195 17.7564H71.7093V21.8624H64.8195V26.1773H71.7093V30.2601H59.7623V9.38186H71.7093V13.4879H64.8195V17.7564Z" fill="black"/>
<path d="M81.3367 9.38186C84.0044 9.38186 85.5355 9.66023 86.649 10.3794C88.0873 11.2609 88.9688 13.0472 88.9688 15.0422C88.9688 16.5037 88.5049 17.7332 87.5537 18.6611C86.9506 19.2874 86.4866 19.5658 85.3731 19.8906C86.649 20.169 87.229 20.4473 87.8785 21.0737C88.8064 21.9552 89.2936 23.1615 89.2936 24.6926C89.2936 26.6412 88.5049 28.3579 87.1594 29.2626C86.1155 29.9586 84.886 30.2369 82.7517 30.2369H74.2148V9.38186H81.3367ZM79.272 18.0347H80.5247C82.8445 18.0347 83.8189 17.3156 83.8189 15.5989C83.8189 13.9055 82.8445 13.1863 80.4783 13.1863H79.2952V18.0347H79.272ZM79.272 26.6412H81.1279C83.2621 26.6412 84.1668 25.9221 84.1668 24.2286C84.1668 23.2311 83.7957 22.512 83.0301 22.0944C82.4734 21.7928 81.963 21.7232 80.4319 21.7232H79.272V26.6412Z" fill="black"/>
<path d="M96.3223 30.2601H91.2419V9.38186H97.9926C100.753 9.38186 102.748 9.89221 104.117 10.9361C105.555 12.0728 106.367 13.9287 106.367 16.2253C106.367 19.4266 105.022 21.5145 102.331 22.5816L106.924 30.2369H100.846L96.2759 22.164V30.2601H96.3223ZM97.9462 19.3338C100.011 19.3338 101.264 18.2667 101.264 16.4573C101.264 14.7406 100.034 13.5575 98.271 13.5575H96.3223V19.357H97.9462V19.3338Z" fill="black"/>
<path d="M121.632 30.2601H127.13L120.286 9.38186H113.837L106.947 30.2601H112.283L113.582 26.1541H120.356L121.632 30.2601ZM114.881 22.048L116.969 15.367L119.057 22.048H114.881Z" fill="black"/>
<path fill-rule="evenodd" clip-rule="evenodd" d="M15.7839 12.4929H22.9238L20.0066 9.55982L19.9945 9.54768H16.2392C18.6931 9.31708 20.611 7.2457 20.611 4.72122C20.611 2.043 18.4513 -0.129517 15.7839 -0.129517V9.55982L7.75755 1.5292C7.33447 1.74767 6.92349 1.9904 6.52459 2.25337C6.08539 2.54061 5.66232 2.85213 5.25939 3.18387L12.8546 10.7816V27.4578L18.7172 33.3442V29.1812L15.7839 26.24V12.4929ZM24.5807 26.753H27.514V21.3642L24.5807 18.419V26.753ZM18.7007 26.7312L18.7168 12.5107L21.6461 15.4681L21.6461 15.4721H25.8443L28.7776 18.4174H24.575L21.6461 15.4725L21.634 26.7312H18.7007ZM9.91967 24.5154V24.6893C9.58927 24.3495 -0.129395 14.4255 -0.129395 14.4255C-0.117307 13.1592 0.0559531 11.9294 0.370238 10.7602L6.98634 17.4072V13.2442L1.53068 7.76638C1.99807 6.87229 2.55412 6.03484 3.18269 5.26212L9.91967 12.0224V24.5154ZM-0.0786254 18.6366V22.7996L18.718 41.6685V37.5096L-0.0786254 18.6366ZM30.4453 23.0298H33.3786L37.1742 26.7518C37.1742 29.43 35.0105 31.6025 32.3431 31.6025C29.6757 31.6025 27.516 29.43 27.516 26.7518H30.4453V23.0298Z" fill="black"/>
</g>
<defs>
<clipPath id="clip0_94_2157">
<rect width="127" height="42" fill="white"/>
</clipPath>
</defs>
</svg>
